<svg width="30" height="30" viewBox="0 0 30 30" fill="none" xmlns="http://www.w3.org/2000/svg">
<path d="M16.25 26.25H7.5M23.75 22.5H12.5M8.75 22.5H6.25M22.5 26.25H20M8.75 18.75C5.29822 18.75 2.5 15.9518 2.5 12.5C2.5 9.04822 5.29822 6.25 8.75 6.25C8.79144 6.25 8.83278 6.2504 8.87402 6.25121C10.0117 4.0245 12.3278 2.5 15 2.5C18.149 2.5 20.8036 4.61719 21.6178 7.50578C21.7031 7.50194 21.7888 7.5 21.875 7.5C24.9816 7.5 27.5 10.0184 27.5 13.125C27.5 16.2316 24.9816 18.75 21.875 18.75C17.1793 18.75 14.044 18.75 8.75 18.75Z" stroke="white" stroke-width="2" stroke-linecap="round" stroke-linejoin="round"/>
</svg>
