<svg width="30" height="30" viewBox="0 0 30 30" fill="none" xmlns="http://www.w3.org/2000/svg">
<path d="M11.8866 5.83333C12.3444 5.32188 13.0096 5 13.75 5C15.1307 5 16.25 6.11929 16.25 7.5C16.25 8.88071 15.1307 10 13.75 10H2.50003M15.6366 24.1667C16.0944 24.6781 16.7596 25 17.5 25C18.8807 25 20 23.8807 20 22.5C20 21.1193 18.8807 20 17.5 20H2.50003M20.9549 8.75C21.6415 7.98281 22.6394 7.5 23.75 7.5C25.8211 7.5 27.5 9.17893 27.5 11.25C27.5 13.3211 25.8211 15 23.75 15H2.5" stroke="white" stroke-width="2" stroke-linecap="round" stroke-linejoin="round"/>
</svg>
